:FULLY-SPECIFIED
:FORCE-ALL-JOINTS-BE-3DOF
:DEGREES
238
root 6.206 15.7665 -25.6551 9.13192 30.9449 -2.51359
lfemur -28.0691 21.6788 -8.34103
ltibia 38.4818 -0 0
lfoot -22.1662 -2.12328 0.334662
ltoes 36.7891 -0 0
rfemur -14.838 -1.35401 0.0313785
rtibia 41.5336 -0 0
rfoot -34.3054 -19.9418 0.73223
rtoes 55.9231 -0 0
lowerback -0.530631 -2.62933 1.26969
upperback -1.17796 -3.45843 0.973932
thorax -0.885629 -1.75354 0.287611
lowerneck -10.1752 -4.17677 1.31452
upperneck 2.59152 -5.78835 1.00321
head 2.61611 -2.81816 -0.199895
lclavicle -1.93524e-14 -2.71493e-16 1.38143e-30
lhumerus -56.0985 -36.0081 120.842
lradius 60.7316 -0 0
lwrist 18.8712 0 0
lhand 12.5193 16.0973 0.938558
lfingers 7.12502 -0 0
lthumb 37.2503 39.9294 -0.00294005
rclavicle -1.93524e-14 -2.71493e-16 1.38143e-30
rhumerus -31.3723 -15.9837 -52.7024
rradius 59.4763 -0 0
rwrist 7.1337 0 0
rhand -20.9121 -33.1276 1.15511
rfingers 7.12502 -0 0
rthumb 5.45772 -62.8543 1.11291
239
root 6.24873 15.7893 -25.6612 9.11326 31.9647 -2.78575
lfemur -29.323 22.2897 -8.88846
ltibia 39.5106 -0 0
lfoot -21.7288 -1.81957 0.30672
ltoes 36.4714 -0 0
rfemur -14.2702 -0.812819 0.381744
rtibia 41.2333 -0 0
rfoot -34.5457 -21.1392 0.670593
rtoes 55.7868 -0 0
lowerback -0.454759 -2.66896 1.32292
upperback -1.19723 -3.50936 1.24452
thorax -0.937777 -1.77631 0.541347
lowerneck -10.1295 -4.31616 1.13508
upperneck 2.55326 -5.94724 0.962267
head 2.59545 -2.902 -0.18999
lclavicle -1.96372e-14 1.65817e-15 1.26631e-30
lhumerus -55.9859 -35.6659 120.98
lradius 60.9413 -0 0
lwrist 18.6697 0 0
lhand 11.6399 15.6759 0.859839
lfingers 7.12502 -0 0
lthumb 36.4467 39.9309 -0.00269398
rclavicle -1.96372e-14 1.65817e-15 1.26631e-30
rhumerus -32.3455 -15.9594 -53.9475
rradius 59.6635 -0 0
rwrist 8.0373 0 0
rhand -20.3709 -32.2852 1.0582
rfingers 7.12502 -0 0
rthumb 5.98021 -62.0135 1.01955
240
root 6.29147 15.8122 -25.6673 9.08861 32.9845 -3.0614
lfemur -30.5887 22.8893 -9.45268
ltibia 40.5393 -0 0
lfoot -21.2915 -1.51608 0.276461
ltoes 36.1538 -0 0
rfemur -13.6992 -0.275134 0.737424
rtibia 40.933 -0 0
rfoot -34.7848 -22.3364 0.603947
rtoes 55.6505 -0 0
lowerback -0.378924 -2.70867 1.37609
upperback -1.21675 -3.5602 1.51514
thorax -0.990027 -1.79885 0.795107
lowerneck -10.0834 -4.4554 0.9555
upperneck 2.5151 -6.10616 0.921423
head 2.57479 -2.98584 -0.180053
lclavicle -1.99221e-14 3.58784e-15 1.1416e-30
lhumerus -55.8729 -35.3238 121.117
lradius 61.151 -0 0
lwrist 18.4681 0 0
lhand 10.7611 15.2557 0.774666
lfingers 7.12502 -0 0
lthumb 35.6431 39.9323 -0.00242763
rclavicle -1.99221e-14 3.58784e-15 1.1416e-30
rhumerus -33.319 -15.9554 -55.1926
rradius 59.8508 -0 0
rwrist 8.9409 0 0
rhand -19.8312 -31.4438 0.95334
rfingers 7.12502 -0 0
rthumb 6.50126 -61.1736 0.918537
241
root 6.33421 15.835 -25.6733 9.05775 34.0041 -3.34085
lfemur -31.8664 23.4771 -10.0337
ltibia 41.568 -0 0
lfoot -20.8544 -1.21283 0.243887
ltoes 35.8362 -0 0
rfemur -13.1248 0.258969 1.09844
rtibia 40.6327 -0 0
rfoot -35.0223 -23.5333 0.532322
rtoes 55.5142 -0 0
lowerback -0.303125 -2.74845 1.42922
upperback -1.2365 -3.61095 1.78579
thorax -1.04238 -1.82116 1.04889
lowerneck -10.0368 -4.5945 0.775771
upperneck 2.47705 -6.2651 0.880672
head 2.5541 -3.06967 -0.170086
lclavicle -2.02069e-14 5.5175e-15 1.00729e-30
lhumerus -55.7593 -34.982 121.255
lradius 61.3606 -0 0
lwrist 18.2665 0 0
lhand 9.88302 14.8369 0.683062
lfingers 7.12502 -0 0
lthumb 34.8394 39.9338 -0.00214104
rclavicle -2.02069e-14 5.5175e-15 1.00729e-30
rhumerus -34.2923 -15.9718 -56.4377
rradius 60.038 -0 0
rwrist 9.8445 0 0
rhand -19.2931 -30.6034 0.840575
rfingers 7.12502 -0 0
rthumb 7.02076 -60.3346 0.809902
242
root 6.37695 15.8579 -25.6794 9.02044 35.0236 -3.62441
lfemur -33.1563 24.0529 -10.6315
ltibia 42.5968 -0 0
lfoot -20.4174 -0.909844 0.209
ltoes 35.5185 -0 0
rfemur -12.547 0.789415 1.46483
rtibia 40.3323 -0 0
rfoot -35.2584 -24.7299 0.455752
rtoes 55.3779 -0 0
lowerback -0.227361 -2.7883 1.48229
upperback -1.2565 -3.6616 2.05647
thorax -1.09483 -1.84323 1.3027
lowerneck -9.98975 -4.73345 0.595894
upperneck 2.43909 -6.42408 0.840016
head 2.5334 -3.1535 -0.160088
lclavicle -2.04918e-14 7.44717e-15 8.63394e-31
lhumerus -55.6453 -34.6405 121.393
lradius 61.5703 -0 0
lwrist 18.0649 0 0
lhand 9.00562 14.4196 0.585053
lfingers 7.12502 -0 0
lthumb 34.0358 39.9352 -0.00183427
rclavicle -2.04918e-14 7.44717e-15 8.63394e-31
rhumerus -35.2652 -16.0085 -57.6825
rradius 60.2253 -0 0
rwrist 10.7481 0 0
rhand -18.7568 -29.7642 0.719937
rfingers 7.12502 -0 0
rthumb 7.5386 -59.4967 0.693678
243
root 6.41968 15.8808 -25.6855 8.97641 36.0429 -3.91242
lfemur -34.4586 24.6161 -11.2462
ltibia 43.6255 -0 0
lfoot -19.9807 -0.60713 0.171805
ltoes 35.2009 -0 0
rfemur -11.9658 1.31613 1.83661
rtibia 40.032 -0 0
rfoot -35.4927 -25.9261 0.37427
rtoes 55.2415 -0 0
lowerback -0.151635 -2.82821 1.5353
upperback -1.27673 -3.71216 2.32719
thorax -1.14737 -1.86508 1.55653
lowerneck -9.94226 -4.87225 0.415866
upperneck 2.40124 -6.58307 0.799452
head 2.51269 -3.23733 -0.150059
lclavicle -2.07766e-14 9.37684e-15 7.09902e-31
lhumerus -55.5306 -34.2991 121.532
lradius 61.78 -0 0
lwrist 17.8633 0 0
lhand 8.12899 14.0038 0.480669
lfingers 7.12502 -0 0
lthumb 33.2322 39.9366 -0.00150738
rclavicle -2.07766e-14 9.37684e-15 7.09902e-31
rhumerus -36.2372 -16.0654 -58.9268
rradius 60.4126 -0 0
rwrist 11.6517 0 0
rhand -18.2223 -28.9261 0.591461
rfingers 7.12502 -0 0
rthumb 8.05467 -58.6599 0.569899
244
root 6.46242 15.9036 -25.6915 8.92537 37.0621 -4.20523
lfemur -35.7733 25.1664 -11.8776
ltibia 44.6542 -0 0
lfoot -19.5441 -0.30471 0.132304
ltoes 34.8833 -0 0
rfemur -11.381 1.83903 2.21381
rtibia 39.7317 -0 0
rfoot -35.7254 -27.122 0.287913
rtoes 55.1052 -0 0
lowerback -0.0759441 -2.8682 1.58827
upperback -1.29721 -3.76263 2.59794
thorax -1.20002 -1.88669 1.81038
lowerneck -9.89432 -5.0109 0.235684
upperneck 2.36349 -6.7421 0.758982
head 2.49195 -3.32115 -0.139998
lclavicle -2.10615e-14 1.13065e-14 5.46816e-31
lhumerus -55.4155 -33.958 121.67
lradius 61.9897 -0 0
lwrist 17.6617 0 0
lhand 7.25314 13.5897 0.369939
lfingers 7.12502 -0 0
lthumb 32.4286 39.938 -0.00116044
rclavicle -2.10615e-14 1.13065e-14 5.46816e-31
rhumerus -37.2081 -16.1427 -60.1703
rradius 60.5998 -0 0
rwrist 12.5553 0 0
rhand -17.6897 -28.0893 0.455188
rfingers 7.12502 -0 0
rthumb 8.56887 -57.8243 0.438602
